<svg width="200" height="32" viewBox="0 0 200 32" fill="none" xmlns="http://www.w3.org/2000/svg">
<g id="Logo">
<path id="Vector" d="M11.3067 2.86218C16.6062 2.86218 19.2596 5.6347 19.2596 9.79347C19.2596 12.9747 17.6026 15.502 14.3716 16.4795C17.8914 17.1335 20.0863 19.7816 20.0863 23.4925C20.0863 29.0802 16.4835 31.4049 10.1478 31.4049H0V2.86218H11.3067ZM5.75802 14.4854H10.0251C12.303 14.4854 13.4619 13.1809 13.4619 11.1015C13.4619 9.02215 12.4258 7.92025 10.1081 7.92025H5.75802V14.4854ZM5.75802 26.3504H9.40055C12.8373 26.3504 14.2886 25.6999 14.2886 22.8847C14.2886 20.0695 12.9637 19.2947 9.5269 19.2947H5.75802V26.3504Z" fill="white"/>
<path id="Vector_2" d="M29.6529 8.57076V31.4049H24.1873V8.57076H29.6529ZM29.4038 1.23071V6.08261H24.4328V1.23071H29.4038Z" fill="white"/>
<path id="Vector_3" d="M32.7178 8.57064H36.2809L37.1907 3.8396H41.5372V8.57064H46.5082V13.1773H41.5372V23.4534C41.5372 26.3467 42.4902 27.1216 46.5082 26.6737V31.7318C45.5551 31.8526 44.3963 31.8953 43.4866 31.8953C37.5228 31.8953 36.0318 29.2045 36.0318 24.0256V13.1773H32.7178V8.57064Z" fill="white"/>
<path id="Vector_4" d="M63.3671 17.5818V16.032C63.3671 13.6256 61.9989 12.7299 59.1831 12.7299C55.62 12.7299 54.6705 14.1979 54.6705 17.4609V22.519C54.6705 25.7394 55.5803 27.25 59.1831 27.25C61.9592 27.25 63.3671 26.3934 63.3671 23.9479V22.3981H68.8327V23.9479C68.8327 29.5747 64.692 31.8176 58.9773 31.8176C52.4323 31.8176 49.1616 28.8815 49.1616 22.5616V17.3827C49.1616 11.0628 52.4756 8.16589 58.9773 8.16589C64.7317 8.16589 68.8327 10.4088 68.8327 16.0356V17.5853H63.3671V17.5818Z" fill="white"/>
<path id="Vector_5" d="M92.3557 17.2583V22.7216C92.3557 29.1233 88.6302 31.8567 82.2079 31.8567C75.7856 31.8567 72.0601 29.1233 72.0601 22.7216V17.2583C72.0601 10.9384 75.7026 8.16589 82.2079 8.16589C88.7132 8.16589 92.3557 10.9384 92.3557 17.2583ZM77.5293 17.5427V22.4372C77.5293 25.6576 78.7314 27.25 82.2079 27.25C85.6844 27.25 86.8468 25.6612 86.8468 22.4372V17.5427C86.8468 14.2405 85.605 12.7299 82.2079 12.7299C78.8109 12.7299 77.5293 14.2405 77.5293 17.5427Z" fill="white"/>
<path id="Vector_6" d="M101.72 8.57076V31.4049H96.2546V8.57076H101.72ZM101.471 1.23071V6.08261H96.5001V1.23071H101.471Z" fill="white"/>
<path id="Vector_7" d="M110.666 8.571L111.576 11.2618C112.817 9.46673 115.012 8.16223 117.994 8.16223C124.33 8.16223 126.525 11.3435 126.525 17.2156V31.4051H121.059V17.5817C121.059 14.3613 119.817 12.7689 116.337 12.7689C113.395 12.7689 111.742 14.603 111.742 17.9869V31.4016H106.276V8.56745H110.666V8.571Z" fill="white"/>
<path id="Vector_8" d="M143.51 12.2425V10.3267C143.51 8.49253 142.474 7.35153 139.618 7.35153C137.052 7.35153 135.85 8.32903 135.85 10.1241C135.85 11.553 136.47 12.4487 137.922 13.1027L144.589 16.2022C148.153 17.8338 149.972 20.4037 149.972 23.7876C149.972 28.8847 146.08 31.9025 140.073 31.9025C134.066 31.9025 130.052 29.0482 130.052 24.0719V21.502H135.81V23.8267C135.81 25.7425 137.178 26.8444 140.117 26.8444C143.055 26.8444 144.135 25.7425 144.135 23.8267C144.135 22.3587 143.387 21.3812 141.813 20.688L135.644 17.9546C132.041 16.3658 130.052 13.6323 130.052 10.0459C130.052 5.1513 133.821 2.37878 139.784 2.37878C145.748 2.37878 149.268 5.31481 149.268 10.1667V12.2461H143.51V12.2425Z" fill="#BE962E"/>
<path id="Vector_9" d="M159.578 2.86218V14.4037H162.809L169.477 2.86218H176.185L168.813 14.5245C168.275 15.4202 167.322 16.3195 166.495 16.7674C167.365 17.1762 168.235 18.0719 168.773 18.9676L176.185 31.4049H169.39L162.806 19.6217H159.575V31.4049H153.817V2.86218H159.575H159.578Z" fill="#BE962E"/>
<path id="Vector_10" d="M189.235 2.86218C195.903 2.86218 199.09 5.6347 199.09 12.1999C199.09 16.9309 197.599 19.7034 194.617 21.0897L200 31.4049H193.372L189.563 23.2082H184.304V31.4049H178.546V2.86218H189.231H189.235ZM188.697 18.0293C191.928 18.0293 193.213 16.5221 193.213 13.0138C193.213 9.13944 192.137 8.03754 188.531 8.03754H184.307V18.0293H188.697Z" fill="#BE962E"/>
</g>
</svg>
